<svg width="22" height="24" viewBox="0 0 22 24" fill="none" xmlns="http://www.w3.org/2000/svg">
    <path d="M18.7599 10C18.7599 17 10.7199 23 10.7199 23C10.7199 23 2.67993 17 2.67993 10C2.67993 7.61305 3.527 5.32387 5.03479 3.63604C6.54259 1.94821 8.58759 1 10.7199 1C12.8523 1 14.8973 1.94821 16.4051 3.63604C17.9129 5.32387 18.7599 7.61305 18.7599 10Z" stroke="#8E8E8E" stroke-width="2" stroke-linecap="round" stroke-linejoin="round"/>
    <path d="M10.7199 13C12.2001 13 13.3999 11.6569 13.3999 10C13.3999 8.34315 12.2001 7 10.7199 7C9.23982 7 8.03995 8.34315 8.03995 10C8.03995 11.6569 9.23982 13 10.7199 13Z" stroke="#8E8E8E" stroke-width="2" stroke-linecap="round" stroke-linejoin="round"/>
    </svg>
    