<svg width="23" height="23" viewBox="0 0 23 23" fill="none" xmlns="http://www.w3.org/2000/svg">
    <path d="M8 18.5V3.33333L22 1V16.1667" stroke="#8E8E8E" stroke-width="2" stroke-linecap="round" stroke-linejoin="round"/>
    <path d="M4.5 22C6.433 22 8 20.433 8 18.5C8 16.567 6.433 15 4.5 15C2.567 15 1 16.567 1 18.5C1 20.433 2.567 22 4.5 22Z" stroke="#8E8E8E" stroke-width="2" stroke-linecap="round" stroke-linejoin="round"/>
    <path d="M18.5 19.6667C20.433 19.6667 22 18.0997 22 16.1667C22 14.2337 20.433 12.6667 18.5 12.6667C16.567 12.6667 15 14.2337 15 16.1667C15 18.0997 16.567 19.6667 18.5 19.6667Z" stroke="#8E8E8E" stroke-width="2" stroke-linecap="round" stroke-linejoin="round"/>
    </svg>
    