<svg width="40" height="40" viewBox="0 0 46 46" fill="none" xmlns="http://www.w3.org/2000/svg">
    <path d="M42.1349 19.9579L16.2455 4.12203C15.7026 3.79104 15.0816 3.61004 14.4458 3.59749C13.8101 3.58494 13.1824 3.74129 12.6268 4.05059C12.0712 4.3599 11.6077 4.81107 11.2835 5.35806C10.9592 5.90506 10.7859 6.52829 10.7812 7.16414V38.8359C10.7859 39.4717 10.9592 40.0949 11.2835 40.6419C11.6077 41.1889 12.0712 41.6401 12.6268 41.9494C13.1824 42.2587 13.8101 42.4151 14.4458 42.4025C15.0816 42.39 15.7026 42.209 16.2455 41.878L42.1349 26.0421C42.657 25.7243 43.0884 25.2776 43.3878 24.7448C43.6873 24.212 43.8445 23.6111 43.8445 23C43.8445 22.3889 43.6873 21.788 43.3878 21.2552C43.0884 20.7224 42.657 20.2757 42.1349 19.9579ZM15.0938 37.5277V8.47227L38.8413 23L15.0938 37.5277Z" fill="currentColor"/>
    </svg>
    